<svg id="レイヤー_1" data-name="レイヤー 1" xmlns="http://www.w3.org/2000/svg" viewBox="0 0 372.7 50.02"><defs><style>.cls-1{fill:#fff;}</style></defs><path class="cls-1" d="M373,46.82c-.43-.24-.33-.66-.33-1l0-19.66a.61.61,0,0,0,.3,0Z" transform="translate(-0.32 -21.49)"/><path class="cls-1" d="M372.69,61.48H373v10l-.36,0Z" transform="translate(-0.32 -21.49)"/><path class="cls-1" d="M183.69,21.53l-5.3,13.24q-6.49,16.21-13,32.44c-1.23,3.07-3,4.26-6.37,4.27h-5.49c-3.35,0-5.2-1.19-6.41-4.23Q141.89,54.11,136.68,41c-2.37-6-4.73-11.9-7.18-17.8-.62-1.48-.27-1.71,1.18-1.65,2.55.11,5.11.11,7.66,0a1.79,1.79,0,0,1,2,1.4Q147.68,41.27,155,59.63a5.32,5.32,0,0,1,.26.61c.16.56.39,1.09,1.06,1.07s.75-.6.93-1.05c1.28-3.17,2.53-6.36,3.8-9.53q5.58-13.92,11.13-27.82c.4-1,.81-1.46,2-1.42C177.26,21.6,180.32,21.53,183.69,21.53Z" transform="translate(-0.32 -21.49)"/><path class="cls-1" d="M268.87,51.59c-2.78,0-5.55,0-8.33,0-1,0-1.21-.26-1.19-1.2.06-2.55.07-5.1,0-7.65,0-1,.22-1.31,1.27-1.29,5.27.06,10.54,0,15.82,0,2.26,0,2.82-.57,2.83-2.86,0-5.22,0-10.43,0-15.65,0-1.14.27-1.53,1.46-1.48,2.44.1,4.88.09,7.32,0,1.1,0,1.38.29,1.37,1.37-.06,5.22,0,10.44,0,15.65,0,2.31.65,3,2.94,3,5.22,0,10.44,0,15.65,0,1,0,1.46.18,1.41,1.34-.1,2.43-.09,4.88,0,7.32,0,1.14-.26,1.5-1.45,1.49-5.22-.07-10.44,0-15.66,0-2.37,0-2.89.54-2.89,3,0,5.22,0,10.44,0,15.65,0,1-.18,1.34-1.25,1.31-2.5-.1-5-.11-7.5,0-1.24,0-1.41-.41-1.4-1.51.06-5.21,0-10.43,0-15.64,0-2.23-.53-2.76-2.74-2.77C274,51.58,271.42,51.59,268.87,51.59Z" transform="translate(-0.32 -21.49)"/><path class="cls-1" d="M335.76,52c.66-.06,1.33,0,2,0h28.61c4,0,5.51-1.14,6.65-4.84v-.34a2.9,2.9,0,0,1-.17-1.62c0-3.93,0-7.86,0-11.79a70.69,70.69,0,0,0-.12-7.28,5.47,5.47,0,0,0-5.64-4.6q-18.88,0-37.79,0c-4.21,0-6.36,2.12-6.36,6.29q0,14.82,0,29.63c0,2.88-.06,5.77,0,8.65a5.35,5.35,0,0,0,5.27,5.35c14.82,0,29.63,0,44.45,0a72.12,72.12,0,0,0,.09-10c-.82-.68-1.8-.48-2.72-.49H337.92a20.15,20.15,0,0,1-2.33-.07,2,2,0,0,1-2-2.18c0-1.5-.09-3,0-4.49S334.23,52.18,335.76,52ZM333,38.82c0-1.33,0-2.66,0-4,0-2.75.49-3.22,3.32-3.22H350c3.33,0,6.66,0,10,0,2.16,0,2.74.62,2.75,2.76v4.5c0,2-.64,2.63-2.7,2.63H335.7C333.67,41.48,333,40.83,333,38.82Z" transform="translate(-0.32 -21.49)"/><path class="cls-1" d="M116.15,61.35c-11.83.06-23.65,0-35.48,0-2,0-2.73-.54-2.81-2.25s-.07-3.55,0-5.33c.06-1.52.89-2.25,2.49-2.23,3.27,0,6.55,0,9.82,0,7.33,0,14.66,0,22-.09,3.54-.06,5.56-2.38,5.57-5.89,0-6,0-12,0-18,0-3.82-2.27-6.1-6.07-6.1H74c-4,0-6.25,2.23-6.25,6.27V65.27c0,3.94,2.24,6.2,6.15,6.2H94.74c7.21,0,14.43,0,21.65,0,1.08,0,1.41-.26,1.37-1.36-.09-2.38-.1-4.77,0-7.16C117.82,61.7,117.48,61.34,116.15,61.35ZM77.85,34.16c.06-1.85.71-2.54,2.53-2.55q12.39,0,24.79,0c1.75,0,2.43.72,2.46,2.42s0,3.33,0,5-.74,2.46-2.58,2.47c-4.1,0-8.21,0-12.31,0H80.59c-2,0-2.69-.67-2.74-2.68C77.81,37.26,77.8,35.71,77.85,34.16Z" transform="translate(-0.32 -21.49)"/><path class="cls-1" d="M244.79,27.29c0-3.53-2.4-5.76-5.92-5.76q-9.5,0-19,0t-19.16,0a5.6,5.6,0,0,0-5.91,5.81q0,19.14,0,38.3a5.57,5.57,0,0,0,5.87,5.83q19.17,0,38.32,0a5.45,5.45,0,0,0,5.79-5.71Q244.85,46.53,244.79,27.29ZM234.71,58.64c0,2.09-.6,2.73-2.62,2.74H207.6c-2,0-2.63-.61-2.63-2.71q0-12.15,0-24.31c0-2.17.58-2.75,2.76-2.75q12.17,0,24.32,0c2,0,2.65.73,2.66,2.73v24.3Z" transform="translate(-0.32 -21.49)"/><path class="cls-1" d="M52.19,42.12C47.36,36.2,42.6,30.2,37.84,24.22a6.69,6.69,0,0,0-5.6-2.7c-8.6,0-17.21,0-25.82,0-3.86,0-6.09,2.21-6.1,6.06q0,9.4,0,18.82V65.22c0,4.09,2.15,6.25,6.24,6.25q16.74,0,33.48,0c3.23,0,5.08-1.21,6.28-4.17,2.37-5.87,4.67-11.78,7.07-17.63A6.85,6.85,0,0,0,52.19,42.12Zm-9.51,7.05c-1.48,3.45-2.87,6.94-4.21,10.44a2.48,2.48,0,0,1-2.64,1.78c-7.61,0-15.22,0-22.83,0-2,0-2.6-.63-2.6-2.58q0-6.16,0-12.32t0-12.16c0-2,.62-2.7,2.66-2.71,5.33,0,10.66,0,16,0a3.14,3.14,0,0,1,2.71,1.27q5.13,6.55,10.4,13A2.87,2.87,0,0,1,42.68,49.17Z" transform="translate(-0.32 -21.49)"/></svg>