<svg xmlns="http://www.w3.org/2000/svg" width="92.932" height="90.343" viewBox="0 0 92.932 90.343">
  <g id="グループ_6051" data-name="グループ 6051" transform="translate(-456.5 -886.583)">
    <g id="NewGroupe39" transform="translate(-4201.059 -2719.058)">
      <g id="NewGroup0-10" transform="translate(4709 3605.891)">
        <g id="グループ_6040" data-name="グループ 6040" transform="translate(0 0)">
          <g id="グループ_6033" data-name="グループ 6033" transform="translate(13.854 3.222)">
            <path id="パス_4632" data-name="パス 4632" d="M4755.481,3636.225v-1.581a.805.805,0,1,0-1.61,0v1.581a10.489,10.489,0,0,1-9.636-9.635h1.58a.805.805,0,1,0,0-1.611h-1.58a10.488,10.488,0,0,1,9.636-9.635v1.581a.805.805,0,1,0,1.61,0v-1.581a10.488,10.488,0,0,1,9.635,9.635h-1.58a.8.8,0,1,0,0,1.61h1.58a10.489,10.489,0,0,1-9.635,9.636Zm11.277-10.44a12.083,12.083,0,1,0-12.083,12.082,12.1,12.1,0,0,0,12.083-12.082Z" transform="translate(-4742.594 -3613.703)" fill="#636363" stroke="#636363" stroke-width="0.5"/>
          </g>
          <g id="グループ_6034" data-name="グループ 6034" transform="translate(2.416 9.665)">
            <path id="パス_4633" data-name="パス 4633" d="M4720.256,3629.327h-4.591a.806.806,0,1,0,0,1.611h4.591a.806.806,0,0,0,0-1.611Z" transform="translate(-4714.859 -3629.327)" fill="#636363" stroke="#636363" stroke-width="0.5"/>
          </g>
          <g id="グループ_6035" data-name="グループ 6035" transform="translate(0 14.498)">
            <path id="パス_4634" data-name="パス 4634" d="M4709,3641.852a.805.805,0,0,0,.806.806h5.8a.805.805,0,1,0,0-1.611h-5.8a.805.805,0,0,0-.806.805Z" transform="translate(-4709 -3641.047)" fill="#636363" stroke="#636363" stroke-width="0.5"/>
          </g>
          <g id="グループ_6036" data-name="グループ 6036" transform="translate(2.416 19.331)">
            <path id="パス_4635" data-name="パス 4635" d="M4721.061,3653.571a.8.8,0,0,0-.8-.805h-4.591a.805.805,0,1,0,0,1.611h4.591a.805.805,0,0,0,.8-.806Z" transform="translate(-4714.859 -3652.766)" fill="#636363" stroke="#636363" stroke-width="0.5"/>
          </g>
          <g id="グループ_6037" data-name="グループ 6037" transform="translate(25.131 8.86)">
            <path id="パス_4636" data-name="パス 4636" d="M4771.548,3633.485v-5.3a.805.805,0,1,0-1.611,0v5.638a.8.8,0,0,0,.236.569l3.222,3.222a.806.806,0,0,0,1.14-1.139l-2.986-2.986Z" transform="translate(-4769.938 -3627.375)" fill="#636363" stroke="#636363" stroke-width="0.5"/>
          </g>
          <g id="グループ_6038" data-name="グループ 6038" transform="translate(25.131 28.996)">
            <path id="パス_4637" data-name="パス 4637" d="M4770.744,3676.2a.806.806,0,1,1-.806.806.805.805,0,0,1,.806-.806Z" transform="translate(-4769.938 -3676.203)" fill="#636363" stroke="#636363" stroke-width="0.5"/>
          </g>
          <g id="グループ_6039" data-name="グループ 6039" transform="translate(10.632)">
            <path id="パス_4638" data-name="パス 4638" d="M4750.084,3605.891a15.306,15.306,0,0,0-3.8,30.133.805.805,0,1,0,.4-1.561,13.693,13.693,0,1,1,6.8,0,.806.806,0,1,0,.4,1.561,15.306,15.306,0,0,0-3.8-30.133Z" transform="translate(-4734.78 -3605.891)" fill="#636363" stroke="#636363" stroke-width="0.5"/>
          </g>
        </g>
      </g>
    </g>
    <g id="NewGroupe16" transform="translate(-3856.002 -1703.358)">
      <g id="NewGroup0-33" transform="translate(4313.002 2611.333)">
        <g id="グループ_4149" data-name="グループ 4149">
          <g id="グループ_4143" data-name="グループ 4143" transform="translate(0 38.178)">
            <path id="パス_3312" data-name="パス 3312" d="M4359.481,2685.31a13.643,13.643,0,0,1-8.371,1.164l-11.9-2.191a5.3,5.3,0,0,0-3.866.524l-.041.024-5.472,3.459-3.9-12.785a8.638,8.638,0,0,0,3.249-1.816l1.947-1.735a12.263,12.263,0,0,1,12.735-1.224l.818.4a10.374,10.374,0,0,0,4.493,1.03h7.934a5.017,5.017,0,0,1,4.92,4.075l-5.75-.26a34.385,34.385,0,0,0-6.258.289.889.889,0,0,0,.244,1.762,32.59,32.59,0,0,1,5.934-.274l6.768.306h.041a.889.889,0,0,0,.889-.889c0-.144-.006-.287-.016-.429l.928-.489,9.805-5.289a3.886,3.886,0,0,1,4.676.75l-19.812,13.6Zm-41.618,10.292-2.967-24.333h7.89l7.418,24.333Zm42.595-26.1c.006,0,.015-.007.021-.012a4.523,4.523,0,0,1,4.6.043l-3.977,2.141a6.764,6.764,0,0,0-2.541-1.143l1.9-1.03Zm8.021.22a3.036,3.036,0,0,1,3.32.734l-7.822,4.22-.459.242a6.775,6.775,0,0,0-1.071-1.946l6.032-3.25Zm5.294-.331-.352.191a4.843,4.843,0,0,0-5.755-1.442l-.02.01-.831.447a6.3,6.3,0,0,0-7.218-.653l-4.47,2.431h-5.948a8.586,8.586,0,0,1-3.719-.852l-.818-.4a14.037,14.037,0,0,0-14.608,1.426c-.019.015-.038.03-.056.047l-1.975,1.758a6.859,6.859,0,0,1-2.586,1.441l-1.122-3.683a.889.889,0,0,0-.851-.63h-9.554a.889.889,0,0,0-.889.889.8.8,0,0,0,.007.108l3.184,26.111a.89.89,0,0,0,.882.782h14.33a.89.89,0,0,0,.89-.889.916.916,0,0,0-.039-.259l-1.883-6.177,5.863-3.705a3.524,3.524,0,0,1,2.574-.333.472.472,0,0,0,.055.012l11.926,2.2a15.438,15.438,0,0,0,9.537-1.347.92.92,0,0,0,.108-.064l20.628-14.163a.89.89,0,0,0,.259-1.192,5.663,5.663,0,0,0-7.55-2.065Z" transform="translate(-4313.001 -2667.107)" fill="#636363" stroke="#636363" stroke-width="1"/>
          </g>
          <g id="グループ_4144" data-name="グループ 4144" transform="translate(7.688 60.193)">
            <path id="パス_3313" data-name="パス 3313" d="M4327.033,2701.048a1.021,1.021,0,1,1-1.021,1.021,1.022,1.022,0,0,1,1.021-1.021Zm-2.8,1.021a2.8,2.8,0,1,0,2.8-2.8,2.8,2.8,0,0,0-2.8,2.8Z" transform="translate(-4324.233 -2699.269)" fill="#636363" stroke="#636363" stroke-width="1"/>
          </g>
          <g id="グループ_4145" data-name="グループ 4145" transform="translate(27.484)">
            <path id="パス_3314" data-name="パス 3314" d="M4354.933,2620.983v-2.931a4.972,4.972,0,0,1,9.944,0v2.931a4.972,4.972,0,0,1-9.944,0Zm11.722,0v-2.931a6.751,6.751,0,0,0-13.5,0v2.931a6.751,6.751,0,0,0,13.5,0Z" transform="translate(-4353.153 -2611.333)" fill="#636363" stroke="#636363" stroke-width="1"/>
          </g>
          <g id="グループ_4146" data-name="グループ 4146" transform="translate(6.654 16.82)">
            <path id="パス_3315" data-name="パス 3315" d="M4324.5,2649.094v-4.883a4.919,4.919,0,0,1,4.336-4.853,5.86,5.86,0,0,0,8.271.522,5.769,5.769,0,0,0,.5-.5,4.856,4.856,0,0,1,1.736.613,7.459,7.459,0,0,0-.813,3.4v5.706Zm20.944-11.382a6.569,6.569,0,0,0,9.265.677,6.481,6.481,0,0,0,.656-.654,5.714,5.714,0,0,1,4.931,5.653v8.636h-19.985v-8.636a5.745,5.745,0,0,1,5.133-5.677Zm17.7,1.646a5.862,5.862,0,0,0,8.272.523,6.081,6.081,0,0,0,.5-.5,4.889,4.889,0,0,1,4.16,4.83v4.883h-14.009v-5.706a7.44,7.44,0,0,0-.821-3.405,4.8,4.8,0,0,1,1.9-.625Zm-23.725,14.445h21.762a.889.889,0,0,0,.889-.889h0v-2.041h14.9a.89.89,0,0,0,.889-.89v-5.772a6.666,6.666,0,0,0-6.241-6.649,1.037,1.037,0,0,0-.916.507,4.08,4.08,0,0,1-6.439-.157.889.889,0,0,0-.737-.36,6.589,6.589,0,0,0-3.272.954,7.476,7.476,0,0,0-5.217-2.587,1.081,1.081,0,0,0-.917.533,4.788,4.788,0,0,1-6.738.674,4.734,4.734,0,0,1-.817-.858.89.89,0,0,0-.738-.36,7.444,7.444,0,0,0-5.165,2.253c-.113.115-.22.234-.323.355a6.612,6.612,0,0,0-3.032-.952,1.038,1.038,0,0,0-.916.507,4.081,4.081,0,0,1-6.439-.158.894.894,0,0,0-.737-.361,6.664,6.664,0,0,0-6.494,6.66v5.772a.89.89,0,0,0,.889.89h14.921v2.041a.89.89,0,0,0,.89.889Z" transform="translate(-4322.723 -2635.905)" fill="#636363" stroke="#636363" stroke-width="1"/>
          </g>
          <g id="グループ_4147" data-name="グループ 4147" transform="translate(45.36 3.714)">
            <path id="パス_3316" data-name="パス 3316" d="M4381.047,2625.344v-2.565a4.241,4.241,0,1,1,8.481,0v2.567a4.241,4.241,0,0,1-8.481,0v0Zm10.26,0v-2.565a6.02,6.02,0,1,0-12.039,0v2.565a6.02,6.02,0,0,0,12.039,0Z" transform="translate(-4379.268 -2616.759)" fill="#636363" stroke="#636363" stroke-width="1"/>
          </g>
          <g id="グループ_4148" data-name="グループ 4148" transform="translate(11.049 3.714)">
            <path id="パス_3317" data-name="パス 3317" d="M4330.922,2625.344v-2.565a4.241,4.241,0,1,1,8.481,0v2.567a4.241,4.241,0,1,1-8.481,0v0Zm10.261,0v-2.565a6.02,6.02,0,1,0-12.039,0v2.565a6.02,6.02,0,1,0,12.039,0Z" transform="translate(-4329.144 -2616.759)" fill="#636363" stroke="#636363" stroke-width="1"/>
          </g>
        </g>
      </g>
    </g>
  </g>
</svg>
