<svg xmlns="http://www.w3.org/2000/svg" width="81.319" height="84.642" viewBox="0 0 81.319 84.642">
  <g id="グループ_6053" data-name="グループ 6053" transform="translate(-900.65 -877.397)">
    <g id="NewGroupe19" transform="translate(-3791.856 -298.603)">
      <g id="NewGroup2-30" transform="translate(4709.102 1176)">
        <g id="グループ_169" data-name="グループ 169">
          <g id="グループ_167" data-name="グループ 167" transform="translate(4.863 4.859)">
            <path id="パス_97" data-name="パス 97" d="M4725.479,1207.422l8.2-8.2-8.2-8.2a10.684,10.684,0,1,1,0,16.392Zm-1.343-15.049,6.853,6.853-6.853,6.853a10.7,10.7,0,0,1,0-13.706Zm17.094-2.044a12.59,12.59,0,0,0-17.09-.637l-1.343,1.343a12.584,12.584,0,0,0,0,16.384l1.343,1.343a12.577,12.577,0,0,0,17.09-18.433Z" transform="translate(-4719.767 -1186.654)" fill="#636363"/>
          </g>
          <g id="グループ_168" data-name="グループ 168">
            <path id="パス_98" data-name="パス 98" d="M4726.532,1177.9a15.53,15.53,0,0,1,10.984,26.509l-.006.005a15.53,15.53,0,1,1-10.978-26.515Zm15.793,29.925-.7.7-.7.7-2.77-2.769.7-.7h0l.7-.7,2.769,2.769Zm2.029.658,8.253,8.254-2.769,2.769-8.254-8.253.655-.656,2.114-2.114ZM4709.1,1193.43a17.414,17.414,0,0,0,27.528,14.184l3.019,3.018a1.413,1.413,0,0,0,.257,1.628l8.924,8.923a1.416,1.416,0,0,0,1.007.419h0a1.416,1.416,0,0,0,1.007-.417l3.441-3.441a1.42,1.42,0,0,0,.324-.506v-1a1.42,1.42,0,0,0-.324-.506l-8.926-8.925a1.412,1.412,0,0,0-1.628-.257l-3.015-3.015a17.423,17.423,0,1,0-31.617-10.1Z" transform="translate(-4709.102 -1176)" fill="#636363"/>
          </g>
        </g>
      </g>
    </g>
    <g id="NewGroupe7" transform="translate(-3499.098 -118)">
      <g id="NewGroup2-42" transform="translate(4445.098 1044)">
        <g id="グループ_99" data-name="グループ 99">
          <g id="グループ_92" data-name="グループ 92">
            <path id="パス_38" data-name="パス 38" d="M4469.875,1077.786a.752.752,0,0,1-.751.751H4447.35a.752.752,0,0,1-.75-.751v-31.534a.751.751,0,0,1,.75-.751H4463.8v3.489a2.8,2.8,0,0,0,2.583,2.518h3.489v26.278Zm-4.57-31.236,3.494,3.457h-2.413a1.372,1.372,0,0,1-1.081-1.016v-2.44Zm-.442-2.55H4447.35a2.255,2.255,0,0,0-2.252,2.252v31.534a2.256,2.256,0,0,0,2.252,2.253h21.774a2.256,2.256,0,0,0,2.252-2.253v-27.342l-6.514-6.444Z" transform="translate(-4445.098 -1044)" fill="#636363"/>
          </g>
          <g id="グループ_93" data-name="グループ 93" transform="translate(8.194 10.512)">
            <path id="パス_39" data-name="パス 39" d="M4468.585,1074.668h9.01a.751.751,0,1,0,0-1.5h-9.01a.751.751,0,0,0,0,1.5Z" transform="translate(-4467.835 -1073.167)" fill="#636363"/>
          </g>
          <g id="グループ_94" data-name="グループ 94" transform="translate(4.44 15.017)">
            <path id="パス_40" data-name="パス 40" d="M4474.688,1085.667h-16.519a.751.751,0,1,0,0,1.5h16.519a.751.751,0,0,0,0-1.5Z" transform="translate(-4457.418 -1085.667)" fill="#636363"/>
          </g>
          <g id="グループ_95" data-name="グループ 95" transform="translate(8.194 19.522)">
            <path id="パス_41" data-name="パス 41" d="M4477.6,1099.669a.751.751,0,1,0,0-1.5h-9.01a.751.751,0,0,0,0,1.5Z" transform="translate(-4467.835 -1098.167)" fill="#636363"/>
          </g>
          <g id="グループ_96" data-name="グループ 96" transform="translate(4.44 24.027)">
            <path id="パス_42" data-name="パス 42" d="M4474.688,1110.667h-16.519a.751.751,0,1,0,0,1.5h16.519a.751.751,0,0,0,0-1.5Z" transform="translate(-4457.418 -1110.667)" fill="#636363"/>
          </g>
          <g id="グループ_97" data-name="グループ 97" transform="translate(8.194 28.531)">
            <path id="パス_43" data-name="パス 43" d="M4477.6,1123.167h-9.01a.751.751,0,0,0,0,1.5h9.01a.751.751,0,1,0,0-1.5Z" transform="translate(-4467.835 -1123.167)" fill="#636363"/>
          </g>
          <g id="グループ_98" data-name="グループ 98" transform="translate(28.467)">
            <path id="パス_44" data-name="パス 44" d="M4525.586,1050.007h4.5v22.524h-4.5v-22.524Zm0-4.5h4.5v3h-4.5v-3Zm2.252,32.107-1.788-3.576h3.576l-1.789,3.576Zm-3.754-32.107v27.182a3.291,3.291,0,0,0,.347,1.469l2.735,5.471a.751.751,0,0,0,1.344,0l2.735-5.471a3.267,3.267,0,0,0,.341-1.275v-27.492a1.5,1.5,0,0,0-1.5-1.386h-4.5a1.5,1.5,0,0,0-1.5,1.5Z" transform="translate(-4524.085 -1044)" fill="#636363"/>
          </g>
        </g>
      </g>
    </g>
    <g id="NewGroupe24" transform="translate(-3148.35 -2536.151)">
      <g id="NewGroup0-25" transform="translate(4049 3461)">
        <g id="グループ_5951" data-name="グループ 5951" transform="translate(0 0)">
          <g id="グループ_5942" data-name="グループ 5942">
            <path id="パス_4558" data-name="パス 4558" d="M4055.247,3490.94l2.905-1.453v7.251h-2.905v-5.8Zm4.359-4.358,2.905-1.453v11.609h-2.905v-10.157Zm13.075-2.456,2.905-5.811v18.424h-2.905v-12.613Zm-4.358-1.175,2.906,1.453v12.335h-2.906V3482.95Zm-1.453,13.788h-2.906V3484.4l2.906-1.453v13.788Zm18.6-2.18a.726.726,0,0,0-.726.727v1.453H4081.4v-8.063a.726.726,0,1,0-1.453,0v8.063h-2.905v-20.775h2.905v6.174a.726.726,0,1,0,1.453,0v-6.9a.726.726,0,0,0-.727-.726h-8.716a.726.726,0,1,0,0,1.453h3.183l-3.508,7.016-3.709-1.854a.735.735,0,0,0-.649,0l-8.717,4.358a.727.727,0,0,0-.4.65v1.73l-3.957,1.979a.727.727,0,0,0-.4.65v6.247h-3.342V3482.5h4.068a.726.726,0,0,0,0-1.453h-4.068v-5.085h4.068a.726.726,0,1,0,0-1.453h-4.068v-5.085h4.068a.726.726,0,0,0,0-1.453h-4.068v-5.521h1.453a.726.726,0,0,0,0-1.453h-2.18a.726.726,0,0,0-.726.726v35.738a.726.726,0,0,0,.726.727h35.738a.727.727,0,0,0,.727-.727v-2.179a.727.727,0,0,0-.727-.727Z" transform="translate(-4049 -3461)" fill="#636363"/>
          </g>
          <g id="グループ_5943" data-name="グループ 5943" transform="translate(9.152 20.048)">
            <path id="パス_4559" data-name="パス 4559" d="M4076.515,3514.906h-2.179a.726.726,0,1,0,0,1.453h2.179a.726.726,0,1,0,0-1.453Z" transform="translate(-4073.609 -3514.906)" fill="#636363"/>
          </g>
          <g id="グループ_5944" data-name="グループ 5944" transform="translate(9.152 13.511)">
            <path id="パス_4560" data-name="パス 4560" d="M4076.515,3497.328h-2.179a.726.726,0,1,0,0,1.453h2.179a.726.726,0,1,0,0-1.453Z" transform="translate(-4073.609 -3497.328)" fill="#636363"/>
          </g>
          <g id="グループ_5945" data-name="グループ 5945" transform="translate(15.69 13.511)">
            <path id="パス_4561" data-name="パス 4561" d="M4094.093,3497.328h-2.179a.726.726,0,1,0,0,1.453h2.179a.726.726,0,1,0,0-1.453Z" transform="translate(-4091.188 -3497.328)" fill="#636363"/>
          </g>
          <g id="グループ_5946" data-name="グループ 5946" transform="translate(9.152 6.973)">
            <path id="パス_4562" data-name="パス 4562" d="M4076.515,3479.75h-2.179a.726.726,0,1,0,0,1.453h2.179a.726.726,0,1,0,0-1.453Z" transform="translate(-4073.609 -3479.75)" fill="#636363"/>
          </g>
          <g id="グループ_5947" data-name="グループ 5947" transform="translate(15.69 6.973)">
            <path id="パス_4563" data-name="パス 4563" d="M4094.093,3479.75h-2.179a.726.726,0,1,0,0,1.453h2.179a.726.726,0,1,0,0-1.453Z" transform="translate(-4091.188 -3479.75)" fill="#636363"/>
          </g>
          <g id="グループ_5948" data-name="グループ 5948" transform="translate(22.228 6.973)">
            <path id="パス_4564" data-name="パス 4564" d="M4109.492,3479.75a.726.726,0,0,0,0,1.453h2.179a.726.726,0,0,0,0-1.453Z" transform="translate(-4108.766 -3479.75)" fill="#636363"/>
          </g>
          <g id="グループ_5949" data-name="グループ 5949" transform="translate(28.765 6.973)">
            <path id="パス_4565" data-name="パス 4565" d="M4129.25,3479.75h-2.179a.726.726,0,0,0,0,1.453h2.179a.726.726,0,0,0,0-1.453Z" transform="translate(-4126.344 -3479.75)" fill="#636363"/>
          </g>
          <g id="グループ_5950" data-name="グループ 5950" transform="translate(30.944 23.68)">
            <path id="パス_4566" data-name="パス 4566" d="M4132.929,3524.672a.726.726,0,1,1-.726.726.727.727,0,0,1,.726-.726Z" transform="translate(-4132.203 -3524.672)" fill="#636363"/>
          </g>
        </g>
      </g>
    </g>
  </g>
</svg>
