<svg xmlns="http://www.w3.org/2000/svg" width="81.707" height="77.525" viewBox="0 0 81.707 77.525">
  <g id="グループ_6052" data-name="グループ 6052" transform="translate(-678 -892.333)">
    <g id="NewGroupe25" transform="translate(-3503 -2543.559)">
      <g id="NewGroup0-24" transform="translate(4181 3461)">
        <g id="グループ_5956" data-name="グループ 5956">
          <g id="グループ_5952" data-name="グループ 5952">
            <path id="パス_4567" data-name="パス 4567" d="M4227.274,3511.37v-4.709h4.1v4.709Zm-21.09,0h-4.095v-10.852h4.095v10.852Zm2.047-10.852h4.1v10.852h-4.1v-10.852Zm-12.284-30.3a1.025,1.025,0,0,1,1.023-1.024h20.476a1.024,1.024,0,0,1,1.023,1.024v41.156h-4.095v-11.876a1.024,1.024,0,0,0-1.023-1.024h-12.286a1.024,1.024,0,0,0-1.023,1.024v11.876h-4.095v-41.156Zm-12.9,36.446h4.1v4.709h-4.1v-4.709Zm1.024-24.571h9.829v29.28h-4.709v-5.733a1.024,1.024,0,0,0-1.024-1.023h-5.119v-4.1h5.119a1.024,1.024,0,0,0,0-2.048h-5.119v-4.095h5.119a1.024,1.024,0,1,0,0-2.047h-5.119v-4.1h5.119a1.023,1.023,0,1,0,0-2.047h-5.119v-3.072a1.026,1.026,0,0,1,1.024-1.024Zm46.275,0a1.026,1.026,0,0,1,1.024,1.024v3.072h-5.119a1.023,1.023,0,1,0,0,2.047h5.119v4.1h-5.119a1.024,1.024,0,1,0,0,2.047h5.119v4.095h-5.119a1.024,1.024,0,0,0,0,2.048h5.119v4.1h-5.119a1.024,1.024,0,0,0-1.024,1.023v5.733h-4.709v-29.28Zm0-2.047h-9.829v-9.828a3.075,3.075,0,0,0-3.071-3.071v-3.072a3.075,3.075,0,0,0-3.072-3.071h-2.559a1.024,1.024,0,1,0,0,2.047h2.559a1.025,1.025,0,0,1,1.024,1.023v3.072h-16.381v-3.072a1.025,1.025,0,0,1,1.024-1.023h2.559a1.024,1.024,0,1,0,0-2.047h-2.559a3.075,3.075,0,0,0-3.071,3.071v3.072a3.074,3.074,0,0,0-3.071,3.071v9.828h-7.781v-5.119a1.024,1.024,0,1,0-2.048,0v5.119a3.075,3.075,0,0,0-3.071,3.071v29.28a1.024,1.024,0,0,0,1.024,1.023h50.37a1.024,1.024,0,0,0,1.023-1.023v-29.28a3.075,3.075,0,0,0-3.071-3.071Z" transform="translate(-4181 -3461)" fill="#636363"/>
          </g>
          <g id="グループ_5953" data-name="グループ 5953" transform="translate(19.042 12.899)">
            <path id="パス_4568" data-name="パス 4568" d="M4219.375,3487.657h4.1v4.095h-4.1v-4.095Zm10.238,4.095h-4.1v-4.095h4.1v4.095Zm-11.262,2.047h12.286a1.024,1.024,0,0,0,1.024-1.024v-6.142a1.024,1.024,0,0,0-1.024-1.024h-12.286a1.024,1.024,0,0,0-1.023,1.024v6.142a1.024,1.024,0,0,0,1.023,1.024Z" transform="translate(-4217.328 -3485.609)" fill="#636363"/>
          </g>
          <g id="グループ_5954" data-name="グループ 5954" transform="translate(19.042 25.185)">
            <path id="パス_4569" data-name="パス 4569" d="M4219.375,3511.094h4.1v4.1h-4.1v-4.1Zm10.238,4.1h-4.1v-4.1h4.1v4.1Zm-11.262,2.047h12.286a1.024,1.024,0,0,0,1.024-1.023v-6.143a1.024,1.024,0,0,0-1.024-1.024h-12.286a1.024,1.024,0,0,0-1.023,1.024v6.143a1.023,1.023,0,0,0,1.023,1.023Z" transform="translate(-4217.328 -3509.047)" fill="#636363"/>
          </g>
          <g id="グループ_5955" data-name="グループ 5955" transform="translate(25.185)">
            <path id="パス_4570" data-name="パス 4570" d="M4230.071,3461a1.024,1.024,0,1,1-1.024,1.023,1.023,1.023,0,0,1,1.024-1.023Z" transform="translate(-4229.046 -3461)" fill="#636363"/>
          </g>
        </g>
      </g>
    </g>
    <g id="グループ_6015" data-name="グループ 6015" transform="translate(720 892.333)">
      <g id="グループ_6012" data-name="グループ 6012" transform="translate(24.346 34.354)">
        <path id="パス_4614" data-name="パス 4614" d="M4373.668,3667.414a.9.9,0,1,1-.9.9.9.9,0,0,1,.9-.9Z" transform="translate(-4372.766 -3667.414)" fill="#636363"/>
      </g>
      <g id="グループ_6013" data-name="グループ 6013" transform="translate(18.936 44.363)">
        <path id="パス_4615" data-name="パス 4615" d="M4361.948,3689.094a.9.9,0,1,1-.9.9.9.9,0,0,1,.9-.9Z" transform="translate(-4361.047 -3689.094)" fill="#636363"/>
      </g>
      <g id="グループ_6014" data-name="グループ 6014">
        <path id="パス_4616" data-name="パス 4616" d="M4352.492,3628.256v3.7H4340.77v-8.775l2.656,1.771a.9.9,0,0,0,1.138-.113l2.429-2.429a5.868,5.868,0,0,1,5.5,5.849Zm-14.427-9.841v-3.063a.9.9,0,0,0-.6-.85,7.227,7.227,0,0,1-4.809-6.8v-2.074h4.508a5.559,5.559,0,0,1,9.919-.065v2.139a7.228,7.228,0,0,1-4.81,6.8.9.9,0,0,0-.6.85v3.063l-1.8,1.8-1.8-1.8Zm.9,13.538h-11.723v-3.7a5.868,5.868,0,0,1,5.5-5.849l2.429,2.429a.9.9,0,0,0,1.138.113l2.656-1.771v8.775Zm-1.919-12,1.405,1.4-2.528,1.685-1.4-1.4,2.527-1.685Zm-4.393-17.932a7.214,7.214,0,0,1,14.427,0v1.713a4.516,4.516,0,0,1-3.607-4.417.9.9,0,0,0-1.8,0,4.514,4.514,0,0,1-4.508,4.509h-4.508v-1.8Zm12.561,19.617-1.4,1.4-2.527-1.685,1.4-1.4,2.527,1.685Zm14.49,16.632v-3.607c0-.675.388-.267-1.525-2.247-.614-.65-.68-.184-3.884-.458v-3.7a7.673,7.673,0,0,0-7.381-7.657l-3.439-2.293v-2.342a9.036,9.036,0,0,0,5.41-8.267v-5.681a9.027,9.027,0,0,0-9.016-9.017h0a9.027,9.027,0,0,0-9.016,9.017v5.681a9.035,9.035,0,0,0,5.41,8.267v2.342l-3.44,2.293a7.672,7.672,0,0,0-7.38,7.657v3.7h-2.705a2.708,2.708,0,0,0-2.706,2.705v3.607a.9.9,0,0,0,.9.9h14.878a.9.9,0,1,0,0-1.8h-13.976v-2.705a.9.9,0,0,1,.9-.9H4357a.9.9,0,0,1,.9.9v2.705h-13.977a.9.9,0,0,0,0,1.8H4358.8a.9.9,0,0,0,.9-.9Z" transform="translate(-4320.031 -3593)" fill="#636363"/>
      </g>
    </g>
  </g>
</svg>
