<svg xmlns="http://www.w3.org/2000/svg" width="76.661" height="73.957" viewBox="0 0 76.661 73.957">
  <g id="NewGroup0-38" transform="translate(-3652.5 -2612.681)">
    <g id="グループ_4107" data-name="グループ 4107" transform="translate(3653 2613.181)">
      <g id="グループ_4100" data-name="グループ 4100" transform="translate(28.676)">
        <path id="パス_3276" data-name="パス 3276" d="M3707.038,2626.385a6.975,6.975,0,0,1-6.967,6.967h0a6.974,6.974,0,0,1-6.966-6.967v-4.033a6.967,6.967,0,0,1,13.933-.07v4.1Zm-6.967-13.2a9.181,9.181,0,0,0-9.17,9.17v4.035a9.171,9.171,0,0,0,18.341.082v-4.117a9.181,9.181,0,0,0-9.171-9.17Z" transform="translate(-3690.901 -2613.181)" fill="#505050" stroke="#505050" stroke-width="1"/>
      </g>
      <g id="グループ_4101" data-name="グループ 4101" transform="translate(53.283 5.195)">
        <path id="パス_3277" data-name="パス 3277" d="M3725.626,2628.173a5.961,5.961,0,0,1,11.922,0v3.531a5.968,5.968,0,0,1-5.96,5.96h0a5.968,5.968,0,0,1-5.961-5.96v-3.531Zm5.961,11.7a8.173,8.173,0,0,0,8.164-8.165v-3.531a8.164,8.164,0,0,0-16.328,0v3.531a8.174,8.174,0,0,0,8.165,8.165Z" transform="translate(-3723.423 -2620.047)" fill="#505050" stroke="#505050" stroke-width="1"/>
      </g>
      <g id="グループ_4102" data-name="グループ 4102" transform="translate(6.05 5.156)">
        <path id="パス_3278" data-name="パス 3278" d="M3675.121,2631.692a5.961,5.961,0,0,1-11.922,0v-3.531a5.961,5.961,0,0,1,11.922,0v3.531Zm-5.961-11.7a8.174,8.174,0,0,0-8.164,8.165v3.531a8.164,8.164,0,0,0,16.328,0v-3.531a8.173,8.173,0,0,0-8.165-8.165Z" transform="translate(-3660.996 -2619.996)" fill="#505050" stroke="#505050" stroke-width="1"/>
      </g>
      <g id="グループ_4103" data-name="グループ 4103" transform="translate(0 23.199)">
        <path id="パス_3279" data-name="パス 3279" d="M3655.2,2655.152a6.892,6.892,0,0,1,6.141-6.809,7.945,7.945,0,0,0,11.208.8,7.8,7.8,0,0,0,.772-.768,6.8,6.8,0,0,1,2.6.927,10.139,10.139,0,0,0-1.157,4.721V2662H3655.2v-6.844Zm29-9.075a8.923,8.923,0,0,0,13.558.031,7.987,7.987,0,0,1,6.958,7.913v12.01h-27.755v-12.01a7.981,7.981,0,0,1,7.24-7.944Zm24.37,2.265a7.945,7.945,0,0,0,11.98.029,6.853,6.853,0,0,1,5.9,6.781V2662h-19.529v-7.976a10.121,10.121,0,0,0-1.172-4.734,6.739,6.739,0,0,1,2.823-.943ZM3654.1,2664.2h20.664v2.933a1.1,1.1,0,0,0,1.1,1.1h29.959a1.1,1.1,0,0,0,1.1-1.1V2664.2h20.631a1.1,1.1,0,0,0,1.1-1.1v-7.946a9.057,9.057,0,0,0-8.487-9.031,1.32,1.32,0,0,0-1.149.653,5.739,5.739,0,0,1-9.057-.221,1.11,1.11,0,0,0-.914-.447,8.956,8.956,0,0,0-4.533,1.35,10.15,10.15,0,0,0-7.151-3.6,1.358,1.358,0,0,0-1.172.69,6.715,6.715,0,0,1-10.6-.259,1.1,1.1,0,0,0-.913-.446,10.125,10.125,0,0,0-7.026,3.064c-.177.181-.343.369-.505.561a8.995,8.995,0,0,0-4.217-1.347,1.316,1.316,0,0,0-1.149.653,5.74,5.74,0,0,1-9.058-.221,1.11,1.11,0,0,0-.913-.447,9.051,9.051,0,0,0-8.82,9.046v7.946a1.1,1.1,0,0,0,1.1,1.1Z" transform="translate(-3653 -2643.843)" fill="#505050" stroke="#505050" stroke-width="1"/>
      </g>
      <g id="グループ_4104" data-name="グループ 4104" transform="translate(31.373 51.6)">
        <path id="パス_3280" data-name="パス 3280" d="M3700.734,2702.142a1.1,1.1,0,0,0,1.1-1.1v-16.087l3.657,3.657a1.1,1.1,0,1,0,1.571-1.545l-.013-.013-5.348-5.348a1.1,1.1,0,0,0-1.559,0h0l-5.348,5.348a1.1,1.1,0,0,0,1.545,1.572l.013-.013,3.279-3.279v15.708a1.1,1.1,0,0,0,1.1,1.1Z" transform="translate(-3694.466 -2681.38)" fill="#505050" stroke="#505050" stroke-width="1"/>
      </g>
      <g id="グループ_4105" data-name="グループ 4105" transform="translate(6.53 59.46)">
        <path id="パス_3281" data-name="パス 3281" d="M3661.631,2700.436a1.1,1.1,0,0,0,2.2,0V2695.3l10.938,9.594a1.1,1.1,0,1,0,1.461-1.65l-.008-.007-10.565-9.267h4.637a1.1,1.1,0,1,0,0-2.2h-7.6l-.059,0-.054.006-.052.008-.057.012-.047.012-.055.018-.046.017-.051.021-.048.023-.046.025-.048.029-.042.03c-.014.01-.03.021-.044.033l-.042.035-.038.035c-.013.012-.029.029-.042.044l-.022.022-.01.013a.6.6,0,0,0-.04.049l-.028.037c-.011.016-.022.033-.033.051s-.018.027-.025.042a.49.49,0,0,0-.026.051c-.008.017-.016.031-.022.046s-.014.034-.02.052-.013.032-.019.049-.01.034-.014.052-.01.035-.014.052-.006.034-.009.051-.006.038-.009.058,0,.032,0,.048,0,.042,0,.062v7.581Z" transform="translate(-3661.631 -2691.769)" fill="#505050" stroke="#505050" stroke-width="1"/>
      </g>
      <g id="グループ_4106" data-name="グループ 4106" transform="translate(53.893 59.73)">
        <path id="パス_3282" data-name="パス 3282" d="M3739.462,2693.125v-.014a1.084,1.084,0,0,0-.017-.107c0-.01,0-.019-.007-.028-.006-.025-.012-.051-.02-.076s-.01-.03-.016-.045-.013-.038-.021-.057-.017-.037-.026-.054-.013-.029-.021-.043a.958.958,0,0,0-.056-.092l-.014-.019c-.017-.023-.033-.046-.052-.068l0,0c-.008-.01-.017-.018-.025-.027s-.03-.033-.045-.048a.521.521,0,0,0-.042-.037l-.038-.034-.049-.036-.036-.027-.052-.031-.042-.024-.049-.023-.049-.022-.046-.017-.055-.018-.046-.012-.058-.014-.052-.008-.054-.007c-.023,0-.046,0-.069,0h-7.6a1.1,1.1,0,0,0,0,2.2h4.536l-10.713,8.982a1.1,1.1,0,0,0,1.416,1.69h0l11.223-9.413v5.2a1.1,1.1,0,0,0,2.2,0v-7.569c0-.032,0-.064-.005-.1Z" transform="translate(-3724.229 -2692.125)" fill="#505050" stroke="#505050" stroke-width="1"/>
      </g>
    </g>
  </g>
</svg>
