<svg xmlns="http://www.w3.org/2000/svg" width="65.694" height="76.303" viewBox="0 0 65.694 76.303">
  <g id="NewGroup0-31" transform="translate(0.5 0.5)">
    <g id="グループ_4173" data-name="グループ 4173">
      <g id="グループ_4157" data-name="グループ 4157">
        <path id="パス_3322" data-name="パス 3322" d="M4586.09,2674.37h38.844v4.429a5.8,5.8,0,0,1-5.792,5.792h-27.259a5.8,5.8,0,0,1-5.793-5.792v-4.429Zm5.793-60.992h27.259a5.8,5.8,0,0,1,5.792,5.793v2.385h-2.386a1.022,1.022,0,0,0,0,2.044h2.386v3.757l-.782-.782a1.023,1.023,0,0,0-1.684.374l-3.727,10.249a24.27,24.27,0,0,1-5.611,8.811,3.016,3.016,0,0,0,0,4.262l2.816,2.816a3.015,3.015,0,0,0,4.019.217l4.969,4.969v14.054H4586.09V2623.6h27.77a1.022,1.022,0,0,0,0-2.044h-27.77v-2.385a5.8,5.8,0,0,1,5.793-5.793Zm39.221,18.775a2.963,2.963,0,0,1,2.731,4.106l-3.876-3.877a2.957,2.957,0,0,1,1.145-.229Zm-2.784,13.4a26.006,26.006,0,0,0-2.747,1.185.99.99,0,0,0-.153.079,26.443,26.443,0,0,0-3.842,2.389l-4.568-4.568a26.321,26.321,0,0,0,3.653-6.743l3.179-8.742,13.221,13.221-8.742,3.178Zm-3.386,4.193-.206-.2.206-.125v.33Zm-1.937.954,2.526,2.527a2.966,2.966,0,0,1,.595,3.336l-4.646-4.647q.735-.637,1.525-1.216Zm-7.283-4.466,4.268,4.268q-.628.55-1.218,1.138a.971.971,0,0,1-1.371,0l-2.817-2.816a.971.971,0,0,1,0-1.371q.59-.589,1.139-1.219Zm-23.831,40.4h27.259a7.846,7.846,0,0,0,7.837-7.837v-19.95a5.011,5.011,0,0,0,0-7.057v-3.463q1-.473,2.041-.854l10.25-3.728a1.022,1.022,0,0,0,.612-1.309,1.01,1.01,0,0,0-.238-.374l-4.295-4.3a5.006,5.006,0,0,0-6.9-6.9l-1.469-1.469V2619.17a7.848,7.848,0,0,0-7.838-7.837h-27.259a7.847,7.847,0,0,0-7.837,7.837V2678.8a7.846,7.846,0,0,0,7.838,7.837Z" transform="translate(-4584.045 -2611.333)" fill="#505050" stroke="#505050" stroke-width="1"/>
      </g>
      <g id="グループ_4158" data-name="グループ 4158" transform="translate(32.148 10.222)">
        <path id="パス_3323" data-name="パス 3323" d="M4627.76,2626.953h1.894a1.022,1.022,0,0,0,0-2.045h-1.894a1.022,1.022,0,1,0,0,2.045Z" transform="translate(-4626.737 -2624.908)" fill="#505050" stroke="#505050" stroke-width="1"/>
      </g>
      <g id="グループ_4159" data-name="グループ 4159" transform="translate(17.89 64.57)">
        <path id="パス_3324" data-name="パス 3324" d="M4611.38,2699.124a1.533,1.533,0,1,1-1.533,1.533,1.533,1.533,0,0,1,1.533-1.533Zm0,5.111a3.578,3.578,0,1,0-3.578-3.578,3.577,3.577,0,0,0,3.578,3.578Z" transform="translate(-4607.802 -2697.08)" fill="#505050" stroke="#505050" stroke-width="1"/>
      </g>
      <g id="グループ_4160" data-name="グループ 4160" transform="translate(21.214 31.974)">
        <path id="パス_3325" data-name="パス 3325" d="M4616.62,2653.793h-3.382a1.022,1.022,0,0,0,0,2.044h3.382a1.022,1.022,0,1,0,0-2.044Z" transform="translate(-4612.216 -2653.793)" fill="#505050" stroke="#505050" stroke-width="1"/>
      </g>
      <g id="グループ_4161" data-name="グループ 4161" transform="translate(5.112 31.974)">
        <path id="パス_3326" data-name="パス 3326" d="M4591.855,2655.837h12.435a1.022,1.022,0,0,0,0-2.044h-12.435a1.022,1.022,0,0,0,0,2.044Z" transform="translate(-4590.834 -2653.793)" fill="#505050" stroke="#505050" stroke-width="1"/>
      </g>
      <g id="グループ_4162" data-name="グループ 4162" transform="translate(11.732 42.095)">
        <path id="パス_3327" data-name="パス 3327" d="M4613.51,2667.234h-12.862a1.022,1.022,0,1,0,0,2.044h12.862a1.022,1.022,0,1,0,0-2.044Z" transform="translate(-4599.625 -2667.234)" fill="#505050" stroke="#505050" stroke-width="1"/>
      </g>
      <g id="グループ_4163" data-name="グループ 4163" transform="translate(5.112 42.095)">
        <path id="パス_3328" data-name="パス 3328" d="M4591.855,2669.278h2.954a1.022,1.022,0,1,0,0-2.044h-2.954a1.022,1.022,0,0,0,0,2.044Z" transform="translate(-4590.834 -2667.234)" fill="#505050" stroke="#505050" stroke-width="1"/>
      </g>
      <g id="グループ_4164" data-name="グループ 4164" transform="translate(33.544 52.216)">
        <path id="パス_3329" data-name="パス 3329" d="M4629.613,2682.718h3.937a1.022,1.022,0,1,0,0-2.044h-3.937a1.022,1.022,0,1,0,0,2.044Z" transform="translate(-4628.591 -2680.674)" fill="#505050" stroke="#505050" stroke-width="1"/>
      </g>
      <g id="グループ_4165" data-name="グループ 4165" transform="translate(23.296 52.216)">
        <path id="パス_3330" data-name="パス 3330" d="M4614.981,2681.7a1.022,1.022,0,0,0,1.022,1.022h6.5a1.022,1.022,0,1,0,0-2.044H4616a1.022,1.022,0,0,0-1.022,1.022Z" transform="translate(-4614.981 -2680.674)" fill="#505050" stroke="#505050" stroke-width="1"/>
      </g>
      <g id="グループ_4166" data-name="グループ 4166" transform="translate(5.112 52.216)">
        <path id="パス_3331" data-name="パス 3331" d="M4606.313,2680.674h-14.458a1.022,1.022,0,0,0,0,2.044h14.458a1.022,1.022,0,0,0,0-2.044Z" transform="translate(-4590.834 -2680.674)" fill="#505050" stroke="#505050" stroke-width="1"/>
      </g>
      <g id="グループ_4167" data-name="グループ 4167" transform="translate(25.742 21.044)">
        <path id="パス_3332" data-name="パス 3332" d="M4625.24,2639.278h-5.988a1.022,1.022,0,1,0,0,2.044h5.988a1.022,1.022,0,0,0,0-2.044Z" transform="translate(-4618.229 -2639.278)" fill="#505050" stroke="#505050" stroke-width="1"/>
      </g>
      <g id="グループ_4168" data-name="グループ 4168" transform="translate(10.99 21.044)">
        <path id="パス_3333" data-name="パス 3333" d="M4599.662,2641.322h11.026a1.022,1.022,0,0,0,0-2.044h-11.026a1.022,1.022,0,1,0,0,2.044Z" transform="translate(-4598.639 -2639.278)" fill="#505050" stroke="#505050" stroke-width="1"/>
      </g>
      <g id="グループ_4169" data-name="グループ 4169" transform="translate(5.112 21.044)">
        <path id="パス_3334" data-name="パス 3334" d="M4591.855,2641.322h2.654a1.022,1.022,0,1,0,0-2.044h-2.654a1.022,1.022,0,0,0,0,2.044Z" transform="translate(-4590.834 -2639.278)" fill="#505050" stroke="#505050" stroke-width="1"/>
      </g>
      <g id="グループ_4170" data-name="グループ 4170" transform="translate(55.252 11.201)">
        <path id="パス_3335" data-name="パス 3335" d="M4658.439,2633.07a1.016,1.016,0,0,0,.723-.3l2.683-2.683-.122.908a1.023,1.023,0,0,0,.878,1.148,1.065,1.065,0,0,0,.137.009,1.022,1.022,0,0,0,1.012-.887l.521-3.9a1.022,1.022,0,0,0-.878-1.149,1.045,1.045,0,0,0-.271,0l-3.9.521a1.022,1.022,0,0,0,.27,2.026l.908-.122-2.682,2.682a1.022,1.022,0,0,0,.723,1.745Z" transform="translate(-4657.417 -2626.208)" fill="#505050" stroke="#505050" stroke-width="1"/>
      </g>
      <g id="グループ_4171" data-name="グループ 4171" transform="translate(45.755 6.918)">
        <path id="パス_3336" data-name="パス 3336" d="M4645.207,2625.482a1.023,1.023,0,0,0,1.434-.192l.556-.728v4.792a1.022,1.022,0,0,0,2.044,0v-4.792l.556.728a1.022,1.022,0,1,0,1.625-1.241l-2.391-3.128a1.021,1.021,0,0,0-1.433-.191,1.009,1.009,0,0,0-.192.191l-2.391,3.128a1.022,1.022,0,0,0,.191,1.432Z" transform="translate(-4644.806 -2620.52)" fill="#505050" stroke="#505050" stroke-width="1"/>
      </g>
      <g id="グループ_4172" data-name="グループ 4172" transform="translate(54.836 20.734)">
        <path id="パス_3337" data-name="パス 3337" d="M4657.888,2643.3h4.792l-.728.556a1.022,1.022,0,0,0,1.242,1.624l3.127-2.391a1.023,1.023,0,0,0,0-1.624l-3.128-2.391a1.022,1.022,0,1,0-1.242,1.624l.728.556h-4.792a1.022,1.022,0,1,0,0,2.045Z" transform="translate(-4656.865 -2638.867)" fill="#505050" stroke="#505050" stroke-width="1"/>
      </g>
    </g>
  </g>
</svg>
