<svg xmlns="http://www.w3.org/2000/svg" width="79.337" height="79.337" viewBox="0 0 79.337 79.337">
  <g id="NewGroupe25" transform="translate(-4181 -3461)">
    <g id="NewGroup0-24" transform="translate(4181 3461)">
      <g id="グループ_5956" data-name="グループ 5956">
        <g id="グループ_5952" data-name="グループ 5952">
          <path id="パス_4567" data-name="パス 4567" d="M4251.039,3537.238v-7.129h6.2v7.129Zm-31.92,0h-6.2v-16.425h6.2v16.425Zm3.1-16.425h6.2v16.425h-6.2v-16.425Zm-18.594-45.867a1.551,1.551,0,0,1,1.55-1.549h30.99a1.551,1.551,0,0,1,1.549,1.549v62.292h-6.2v-17.975a1.55,1.55,0,0,0-1.549-1.55h-18.6a1.55,1.55,0,0,0-1.549,1.55v17.975h-6.2v-62.292Zm-19.525,55.164h6.2v7.129h-6.2v-7.129Zm1.55-37.189h14.875v44.318H4193.4v-8.678a1.55,1.55,0,0,0-1.55-1.55H4184.1v-6.2h7.748a1.55,1.55,0,0,0,0-3.1H4184.1v-6.2h7.748a1.549,1.549,0,1,0,0-3.1H4184.1v-6.2h7.748a1.549,1.549,0,1,0,0-3.1H4184.1v-4.649a1.552,1.552,0,0,1,1.55-1.55Zm70.04,0a1.552,1.552,0,0,1,1.55,1.55v4.649h-7.748a1.549,1.549,0,1,0,0,3.1h7.748v6.2h-7.748a1.549,1.549,0,1,0,0,3.1h7.748v6.2h-7.748a1.55,1.55,0,0,0,0,3.1h7.748v6.2h-7.748a1.55,1.55,0,0,0-1.55,1.55v8.678h-7.127V3492.92Zm0-3.1h-14.875v-14.876a4.654,4.654,0,0,0-4.649-4.648v-4.649a4.653,4.653,0,0,0-4.648-4.648h-3.874a1.549,1.549,0,1,0,0,3.1h3.874a1.551,1.551,0,0,1,1.55,1.549v4.649h-24.793v-4.649a1.551,1.551,0,0,1,1.55-1.549h3.874a1.549,1.549,0,1,0,0-3.1h-3.874a4.653,4.653,0,0,0-4.648,4.648v4.649a4.654,4.654,0,0,0-4.649,4.648v14.876h-11.776v-7.747a1.55,1.55,0,1,0-3.1,0v7.747a4.654,4.654,0,0,0-4.648,4.649v44.317a1.55,1.55,0,0,0,1.549,1.55h76.238a1.55,1.55,0,0,0,1.55-1.55V3494.47a4.654,4.654,0,0,0-4.648-4.649Z" transform="translate(-4181 -3461)" fill="#505050"/>
        </g>
        <g id="グループ_5953" data-name="グループ 5953" transform="translate(28.822 19.524)">
          <path id="パス_4568" data-name="パス 4568" d="M4220.427,3488.709h6.2v6.2h-6.2v-6.2Zm15.5,6.2h-6.2v-6.2h6.2v6.2Zm-17.046,3.1h18.6a1.549,1.549,0,0,0,1.549-1.549v-9.3a1.55,1.55,0,0,0-1.549-1.55h-18.6a1.55,1.55,0,0,0-1.549,1.55v9.3a1.549,1.549,0,0,0,1.549,1.549Z" transform="translate(-4217.328 -3485.609)" fill="#505050"/>
        </g>
        <g id="グループ_5954" data-name="グループ 5954" transform="translate(28.822 38.119)">
          <path id="パス_4569" data-name="パス 4569" d="M4220.427,3512.146h6.2v6.2h-6.2v-6.2Zm15.5,6.2h-6.2v-6.2h6.2v6.2Zm-17.046,3.1h18.6a1.549,1.549,0,0,0,1.549-1.55v-9.3a1.549,1.549,0,0,0-1.549-1.549h-18.6a1.549,1.549,0,0,0-1.549,1.549v9.3a1.549,1.549,0,0,0,1.549,1.55Z" transform="translate(-4217.328 -3509.047)" fill="#505050"/>
        </g>
        <g id="グループ_5955" data-name="グループ 5955" transform="translate(38.119)">
          <path id="パス_4570" data-name="パス 4570" d="M4230.6,3461a1.549,1.549,0,1,1-1.549,1.549A1.549,1.549,0,0,1,4230.6,3461Z" transform="translate(-4229.047 -3461)" fill="#505050"/>
        </g>
      </g>
    </g>
  </g>
</svg>
